<svg height="364pt" viewBox="0 -16 364.30039 364" fill = "white " width="364pt" xmlns="http://www.w3.org/2000/svg"><path d="m327.601562.152344h-134.203124c-20.347657-.136719-36.957032 16.246094-37.097657 36.597656v35.699219c0 3.867187 3.132813 7 7 7 3.863281 0 7-3.132813 7-7v-35.597657c.097657-12.613281 10.386719-22.769531 23-22.699218h134.300781c12.417969-.09375 22.570313 9.878906 22.699219 22.296875v259c.078125 12.453125-9.949219 22.617187-22.402343 22.703125h-134.5c-12.613282.121094-22.945313-9.988282-23.097657-22.601563v-35c0-3.867187-3.136719-7-7-7-3.867187 0-7 3.132813-7 7v34.898438c.082031 20.351562 16.648438 36.785156 37 36.703125h134.300781c9.695313.042968 19.007813-3.769532 25.890626-10.59375 6.886718-6.828125 10.773437-16.113282 10.808593-25.808594v-258.898438c.042969-9.695312-3.765625-19.011718-10.59375-25.894531-6.828125-6.882812-16.113281-10.769531-25.808593-10.804687zm0 0"/><path d="m250.898438 149.152344h-243.898438c-3.867188 0-7 3.132812-7 7 0 3.863281 3.132812 7 7 7h245.5l-55.601562 64.097656c-1.664063 1.890625-2.1875 4.53125-1.367188 6.914062.816406 2.382813 2.84375 4.144532 5.320312 4.617188 2.472657.472656 5.011719-.417969 6.648438-2.332031l64.898438-74.699219c1.476562-1.128906 2.433593-2.804688 2.660156-4.648438.226562-1.84375-.300782-3.699218-1.457032-5.152343-.457031-.574219-.996093-1.078125-1.601562-1.5l-64.800781-64.796875c-2.734375-2.734375-7.164063-2.734375-9.898438 0s-2.734375 7.164062 0 9.898437zm0 0"/></svg>